simulation
nRows=73
nColumns=15
endheader
time  TH_x TH_y TH_z SC_y  SC_z  SC_x  AC_y  AC_z  AC_x  GH_y  GH_z  GH_yy  EL_x  PS_y
1.120370  0.000000  0.000000  0.000000  -57.906379  21.049451  23.474435  45.361170  13.796417  9.195098  -164.766296  42.113476  -168.671058  53.777021  0.000000
1.124848  0.000000  0.000000  0.000000  -57.891051  21.038352  23.457200  45.356959  13.789864  9.169556  -164.671878  41.913886  -168.759226  53.778798  0.000000
1.129327  0.000000  0.000000  0.000000  -57.875948  21.027462  23.440398  45.352826  13.783221  9.144299  -164.577958  41.717465  -168.845888  53.781388  0.000000
1.133806  0.000000  0.000000  0.000000  -57.861081  21.016779  23.424031  45.348775  13.776497  9.119340  -164.484610  41.524274  -168.930953  53.784773  0.000000
1.140205  0.000000  0.000000  0.000000  -57.840268  21.001872  23.401403  45.343138  13.766766  9.084212  -164.352377  41.253962  -169.049533  53.790952  0.000000
1.146604  0.000000  0.000000  0.000000  -57.819984  20.987375  23.379670  45.337689  13.756904  9.049724  -164.221688  40.990511  -169.164386  53.798664  0.000000
1.153003  0.000000  0.000000  0.000000  -57.800246  20.973278  23.358831  45.332437  13.746923  9.015880  -164.092781  40.734057  -169.275234  53.807856  0.000000
1.159402  0.000000  0.000000  0.000000  -57.781067  20.959568  23.338883  45.327389  13.736831  8.982674  -163.965899  40.484722  -169.381801  53.818476  0.000000
1.165800  0.000000  0.000000  0.000000  -57.762446  20.946234  23.319823  45.322549  13.726629  8.950088  -163.841287  40.242617  -169.483820  53.830474  0.000000
1.172199  0.000000  0.000000  0.000000  -57.744375  20.933264  23.301643  45.317917  13.716316  8.918103  -163.719196  40.007844  -169.581029  53.843800  0.000000
1.177896  0.000000  0.000000  0.000000  -57.728736  20.922012  23.286192  45.313968  13.707037  8.890109  -163.612833  39.805088  -169.663312  53.856736  0.000000
1.183593  0.000000  0.000000  0.000000  -57.713502  20.911026  23.271426  45.310182  13.697663  8.862546  -163.508845  39.608278  -169.741406  53.870646  0.000000
1.189289  0.000000  0.000000  0.000000  -57.698656  20.900297  23.257340  45.306559  13.688188  8.835391  -163.407398  39.417463  -169.815146  53.885494  0.000000
1.194986  0.000000  0.000000  0.000000  -57.684178  20.889813  23.243927  45.303099  13.678607  8.808619  -163.308662  39.232688  -169.884366  53.901243  0.000000
1.203196  0.000000  0.000000  0.000000  -57.663911  20.875099  23.225771  45.298398  13.664600  8.770646  -163.171482  38.977091  -169.975829  53.925437  0.000000
1.211406  0.000000  0.000000  0.000000  -57.644309  20.860818  23.208998  45.294039  13.650342  8.733325  -163.040771  38.734212  -170.057074  53.951298  0.000000
1.219617  0.000000  0.000000  0.000000  -57.625313  20.846917  23.193602  45.290030  13.635810  8.696560  -162.917009  38.504112  -170.127618  53.978700  0.000000
1.227827  0.000000  0.000000  0.000000  -57.606873  20.833338  23.179582  45.286381  13.620979  8.660245  -162.800664  38.286828  -170.186985  54.007509  0.000000
1.240811  0.000000  0.000000  0.000000  -57.578703  20.812343  23.160237  45.281384  13.596815  8.603394  -162.632992  37.969360  -170.256835  54.055556  0.000000
1.253795  0.000000  0.000000  0.000000  -57.551602  20.791741  23.144386  45.277374  13.571654  8.546855  -162.486678  37.683784  -170.295832  54.106236  0.000000
1.266779  0.000000  0.000000  0.000000  -57.525375  20.771277  23.132084  45.274403  13.545304  8.490082  -162.363244  37.429822  -170.302404  54.159013  0.000000
1.279763  0.000000  0.000000  0.000000  -57.499815  20.750701  23.123402  45.272515  13.517544  8.432494  -162.264028  37.207066  -170.275176  54.213352  0.000000
1.296621  0.000000  0.000000  0.000000  -57.467298  20.723462  23.117670  45.271737  13.479022  8.355602  -162.173084  36.963595  -170.187621  54.285436  0.000000
1.301678  0.000000  0.000000  0.000000  -57.457629  20.715108  23.117199  45.271883  13.466848  8.331898  -162.154421  36.900478  -170.149572  54.307250  0.000000
1.306736  0.000000  0.000000  0.000000  -57.447975  20.706648  23.117319  45.272206  13.454356  8.307832  -162.139805  36.841858  -170.106017  54.329096  0.000000
1.311793  0.000000  0.000000  0.000000  -57.438325  20.698069  23.118038  45.272709  13.441532  8.283371  -162.129265  36.787688  -170.056928  54.350943  0.000000
1.316851  0.000000  0.000000  0.000000  -57.428667  20.689360  23.119366  45.273395  13.428358  8.258483  -162.122824  36.737924  -170.002278  54.372764  0.000000
1.321908  0.000000  0.000000  0.000000  -57.418992  20.680511  23.121311  45.274263  13.414821  8.233137  -162.120498  36.692522  -169.942051  54.394532  0.000000
1.333321  0.000000  0.000000  0.000000  -57.397040  20.659968  23.128037  45.276913  13.382833  8.174058  -162.130393  36.605738  -169.785619  54.443283  0.000000
1.344733  0.000000  0.000000  0.000000  -57.374874  20.638571  23.138081  45.280529  13.348737  8.112173  -162.161230  36.540291  -169.600762  54.491353  0.000000
1.356145  0.000000  0.000000  0.000000  -57.352430  20.616242  23.151567  45.285130  13.312368  8.047193  -162.212825  36.495574  -169.387637  54.538494  0.000000
1.367558  0.000000  0.000000  0.000000  -57.329657  20.592920  23.168627  45.290732  13.273562  7.978851  -162.284836  36.470929  -169.146552  54.584477  0.000000
1.373077  0.000000  0.000000  0.000000  -57.318517  20.581273  23.178191  45.293803  13.253882  7.944537  -162.326871  36.466068  -169.020032  54.606255  0.000000
1.378597  0.000000  0.000000  0.000000  -57.307289  20.569379  23.188642  45.297113  13.233575  7.909352  -162.373503  36.465659  -168.887140  54.627691  0.000000
1.384116  0.000000  0.000000  0.000000  -57.295971  20.557235  23.199994  45.300662  13.212625  7.873275  -162.424655  36.469621  -168.747950  54.648769  0.000000
1.389636  0.000000  0.000000  0.000000  -57.284563  20.544841  23.212265  45.304452  13.191015  7.836287  -162.480243  36.477873  -168.602544  54.669473  0.000000
1.395395  0.000000  0.000000  0.000000  -57.272564  20.531640  23.226067  45.308663  13.167746  7.796700  -162.542879  36.490965  -168.444282  54.690666  0.000000
1.401155  0.000000  0.000000  0.000000  -57.260467  20.518169  23.240905  45.313136  13.143724  7.756085  -162.610133  36.508540  -168.279459  54.711424  0.000000
1.406914  0.000000  0.000000  0.000000  -57.248277  20.504430  23.256800  45.317872  13.118935  7.714427  -162.681885  36.530499  -168.108193  54.731737  0.000000
1.412674  0.000000  0.000000  0.000000  -57.235995  20.490426  23.273769  45.322870  13.093364  7.671713  -162.758006  36.556741  -167.930609  54.751595  0.000000
1.418230  0.000000  0.000000  0.000000  -57.224063  20.476668  23.291176  45.327941  13.067938  7.629494  -162.835464  36.586024  -167.753414  54.770316  0.000000
1.423787  0.000000  0.000000  0.000000  -57.212055  20.462674  23.309618  45.333255  13.041758  7.586277  -162.916738  36.619104  -167.570587  54.788605  0.000000
1.429344  0.000000  0.000000  0.000000  -57.199976  20.448449  23.329111  45.338811  13.014813  7.542057  -163.001696  36.655887  -167.382258  54.806458  0.000000
1.434901  0.000000  0.000000  0.000000  -57.187832  20.434001  23.349672  45.344610  12.987094  7.496831  -163.090203  36.696277  -167.188563  54.823877  0.000000
1.440088  0.000000  0.000000  0.000000  -57.176442  20.420316  23.369845  45.350242  12.960509  7.453702  -163.175913  36.737156  -167.003010  54.839747  0.000000
1.445276  0.000000  0.000000  0.000000  -57.165008  20.406450  23.390976  45.356084  12.933233  7.409697  -163.264478  36.781012  -166.813016  54.855242  0.000000
1.450464  0.000000  0.000000  0.000000  -57.153537  20.392409  23.413078  45.362134  12.905261  7.364819  -163.355778  36.827762  -166.618703  54.870367  0.000000
1.455651  0.000000  0.000000  0.000000  -57.142036  20.378202  23.436163  45.368392  12.876587  7.319073  -163.449692  36.877324  -166.420192  54.885126  0.000000
1.460502  0.000000  0.000000  0.000000  -57.131261  20.364774  23.458649  45.374430  12.849136  7.275516  -163.539764  36.926138  -166.230883  54.898604  0.000000
1.465353  0.000000  0.000000  0.000000  -57.120473  20.351215  23.482015  45.380648  12.821063  7.231211  -163.631913  36.977266  -166.038113  54.911775  0.000000
1.470204  0.000000  0.000000  0.000000  -57.109679  20.337532  23.506270  45.387045  12.792366  7.186162  -163.726036  37.030636  -165.841987  54.924647  0.000000
1.475054  0.000000  0.000000  0.000000  -57.098885  20.323733  23.531425  45.393619  12.763042  7.140378  -163.822030  37.086178  -165.642608  54.937230  0.000000
1.479812  0.000000  0.000000  0.000000  -57.088307  20.310094  23.556977  45.400238  12.733671  7.094769  -163.917894  37.142687  -165.444012  54.949298  0.000000
1.484569  0.000000  0.000000  0.000000  -57.077743  20.296359  23.583410  45.407025  12.703694  7.048468  -164.015361  37.201145  -165.242490  54.961106  0.000000
1.489326  0.000000  0.000000  0.000000  -57.067200  20.282535  23.610732  45.413979  12.673109  7.001485  -164.114333  37.261480  -165.038139  54.972665  0.000000
1.490753  0.000000  0.000000  0.000000  -57.064042  20.278371  23.619102  45.416098  12.663815  6.987258  -164.144308  37.279940  -164.976293  54.976085  0.000000
1.492180  0.000000  0.000000  0.000000  -57.060887  20.274201  23.627554  45.418231  12.654466  6.972971  -164.174407  37.298561  -164.914204  54.979484  0.000000
1.493608  0.000000  0.000000  0.000000  -57.057735  20.270023  23.636087  45.420380  12.645062  6.958623  -164.204626  37.317339  -164.851876  54.982863  0.000000
1.495035  0.000000  0.000000  0.000000  -57.054586  20.265839  23.644701  45.422543  12.635604  6.944216  -164.234965  37.336275  -164.789311  54.986220  0.000000
1.502051  0.000000  0.000000  0.000000  -57.039160  20.245184  23.688240  45.433390  12.588308  6.872537  -164.385726  37.431536  -164.478405  55.002446  0.000000
1.504156  0.000000  0.000000  0.000000  -57.034551  20.238960  23.701688  45.436713  12.573861  6.850757  -164.431465  37.460819  -164.384065  55.007223  0.000000
1.506261  0.000000  0.000000  0.000000  -57.029951  20.232726  23.715316  45.440068  12.559295  6.828852  -164.477422  37.490411  -164.289251  55.011961  0.000000
1.508365  0.000000  0.000000  0.000000  -57.025362  20.226481  23.729123  45.443454  12.544609  6.806822  -164.523588  37.520304  -164.193973  55.016661  0.000000
1.510470  0.000000  0.000000  0.000000  -57.020784  20.220227  23.743112  45.446871  12.529805  6.784670  -164.569955  37.550494  -164.098238  55.021324  0.000000
1.515282  0.000000  0.000000  0.000000  -57.010365  20.205898  23.775775  45.454800  12.495514  6.733572  -164.676661  37.620575  -163.877714  55.031856  0.000000
1.520094  0.000000  0.000000  0.000000  -57.000015  20.191532  23.809392  45.462890  12.460603  6.681850  -164.784279  37.692086  -163.654950  55.042217  0.000000
1.524906  0.000000  0.000000  0.000000  -56.989741  20.177138  23.843966  45.471139  12.425074  6.629517  -164.892717  37.764948  -163.430045  55.052422  0.000000
1.529718  0.000000  0.000000  0.000000  -56.979551  20.162723  23.879505  45.479545  12.388928  6.576586  -165.001884  37.839082  -163.203096  55.062487  0.000000
1.533393  0.000000  0.000000  0.000000  -56.971829  20.151706  23.907294  45.486069  12.360912  6.535771  -165.085684  37.896503  -163.028471  55.070087  0.000000
1.537067  0.000000  0.000000  0.000000  -56.964164  20.140686  23.935651  45.492684  12.332539  6.494622  -165.169816  37.954580  -162.852753  55.077622  0.000000
1.540742  0.000000  0.000000  0.000000  -56.956557  20.129666  23.964575  45.499387  12.303811  6.453145  -165.254242  38.013276  -162.675985  55.085098  0.000000
1.541844  0.000000  0.000000  0.000000  -56.954287  20.126360  23.973364  45.501416  12.295123  6.440638  -165.279623  38.031002  -162.622754  55.087330  0.000000
1.542597  0.000000  0.000000  0.000000  -56.952740  20.124103  23.979396  45.502806  12.289170  6.432079  -165.296971  38.043139  -162.586344  55.088852  0.000000
